HIERARCHY
ROOT Hips
{
	OFFSET -0.001795 -0.223333 0.028219
	CHANNELS 6 Xposition Yposition Zposition Zrotation Yrotation Xrotation 
	JOINT LeftUpLeg
	{
		OFFSET 0.069520 -0.091406 -0.006815
		CHANNELS 3 Zrotation Yrotation Xrotation
		JOINT LeftLeg
		{
			OFFSET 0.034277 -0.375199 -0.004496
			CHANNELS 3 Zrotation Yrotation Xrotation
			JOINT LeftFoot
			{
				OFFSET -0.013596 -0.397961 -0.043693
				CHANNELS 3 Zrotation Yrotation Xrotation
				JOINT LeftToe
				{
					OFFSET 0.026358 -0.055791 0.119288
					CHANNELS 3 Zrotation Yrotation Xrotation
					End Site
					{
						OFFSET 0.000000 0.000000 0.000000
					}
				}
			}
		}
	}
	JOINT RightUpLeg
	{
		OFFSET -0.067670 -0.090522 -0.004320
		CHANNELS 3 Zrotation Yrotation Xrotation
		JOINT RightLeg
		{
			OFFSET -0.038290 -0.382569 -0.008850
			CHANNELS 3 Zrotation Yrotation Xrotation
			JOINT RightFoot
			{
				OFFSET 0.015774 -0.398415 -0.042312
				CHANNELS 3 Zrotation Yrotation Xrotation
				JOINT RightToe
				{
					OFFSET -0.025372 -0.048144 0.123348
					CHANNELS 3 Zrotation Yrotation Xrotation
					End Site
					{
						OFFSET 0.000000 0.000000 0.000000
					}
				}
			}
		}
	}
	JOINT Spine
	{
		OFFSET -0.002533 0.108963 -0.026696
		CHANNELS 3 Zrotation Yrotation Xrotation
		JOINT Spine1
		{
			OFFSET 0.005487 0.135180 0.001092
			CHANNELS 3 Zrotation Yrotation Xrotation
			JOINT Spine2
			{
				OFFSET 0.001457 0.052922 0.025425
				CHANNELS 3 Zrotation Yrotation Xrotation
				JOINT Neck
				{
					OFFSET -0.002778 0.213870 -0.042857
					CHANNELS 3 Zrotation Yrotation Xrotation
					JOINT Head
					{
						OFFSET 0.005152 0.064970 0.051349
						CHANNELS 3 Zrotation Yrotation Xrotation
						End Site
						{
							OFFSET 0.000000 0.000000 0.000000
						}
					}
				}
				JOINT LeftShoulder
				{
					OFFSET 0.078845 0.121749 -0.034090
					CHANNELS 3 Zrotation Yrotation Xrotation
					JOINT LeftArm
					{
						OFFSET 0.090977 0.030469 -0.008868
						CHANNELS 3 Zrotation Yrotation Xrotation
						JOINT LeftForeArm
						{
							OFFSET 0.259612 -0.012772 -0.027456
							CHANNELS 3 Zrotation Yrotation Xrotation
							JOINT LeftHand
							{
								OFFSET 0.249234 0.008986 -0.001171
								CHANNELS 3 Zrotation Yrotation Xrotation
								End Site
								{
									OFFSET 0.000000 0.000000 0.000000
								}
							}
						}
					}
				}
				JOINT RightShoulder
				{
					OFFSET -0.081759 0.118833 -0.038615
					CHANNELS 3 Zrotation Yrotation Xrotation
					JOINT RightArm
					{
						OFFSET -0.096012 0.032551 -0.009143
						CHANNELS 3 Zrotation Yrotation Xrotation
						JOINT RightForeArm
						{
							OFFSET -0.253742 -0.013329 -0.021401
							CHANNELS 3 Zrotation Yrotation Xrotation
							JOINT RightHand
							{
								OFFSET -0.255298 0.007772 -0.005559
								CHANNELS 3 Zrotation Yrotation Xrotation
								End Site
								{
									OFFSET 0.000000 0.000000 0.000000
								}
							}
						}
					}
				}
			}
		}
	}
}
MOTION
Frames: 7
Frame Time: 0.050000
-0.092460 0.301770 0.333183 -7.798627 10.327112 -30.486222 26.131731 4.087230 -68.729812 -5.661442 -3.802011 152.652392 6.440278 1.752857 -39.338133 0.000000 0.000000 0.000000 -15.068394 -8.540747 -67.972556 8.736865 -17.983767 136.241617 -7.961186 -31.989682 -40.565901 0.000000 0.000000 0.000000 -15.927715 2.735797 88.101450 14.862669 -3.496994 -25.816188 10.288663 21.162029 29.238039 -4.773635 9.183285 -21.298797 0.000000 0.000000 0.000000 -12.728544 -22.598360 5.604218 4.643358 -33.902967 -2.676727 113.609291 -62.043697 -93.167891 0.000000 0.000000 0.000000 -19.934905 31.545915 0.457192 10.161623 27.482256 1.586401 -109.200055 55.681336 -60.103276 0.000000 0.000000 0.000000 
-0.092646 0.291874 0.337924 -8.024182 10.885862 -30.223337 26.145778 3.831953 -70.476105 -5.212898 -6.762077 154.667869 6.375536 -2.442827 -41.265033 0.000000 0.000000 0.000000 -14.909935 -9.047119 -69.741225 9.344850 -20.686120 137.626020 -7.757587 -33.732146 -41.263657 0.000000 0.000000 0.000000 -15.438901 1.940875 87.755049 14.197488 -3.385472 -25.133471 10.488680 21.061223 29.247644 -4.180014 8.646245 -17.746612 0.000000 0.000000 0.000000 -14.730304 -22.328615 5.310082 5.321427 -32.599368 -2.502970 116.228312 -61.969617 -95.450534 0.000000 0.000000 0.000000 -19.327662 30.922669 0.599783 11.822055 25.887533 1.508451 -112.592849 56.224571 -63.428864 0.000000 0.000000 0.000000 
-0.092750 0.284328 0.340874 -8.097589 10.991895 -29.940696 25.846204 3.605784 -72.317653 -4.998667 -7.650172 156.360384 6.547882 -4.052415 -42.507602 0.000000 0.000000 0.000000 -14.763121 -9.284288 -71.335654 10.070974 -22.943795 137.600106 -7.487020 -35.030867 -42.781055 0.000000 0.000000 0.000000 -15.470960 1.884844 87.652867 13.832699 -3.270128 -25.170960 10.784644 20.805725 30.149645 -3.935932 8.389189 -15.810040 0.000000 0.000000 0.000000 -15.408286 -21.710368 5.089572 6.194030 -31.619887 -2.512147 118.687986 -60.881097 -96.817664 0.000000 0.000000 0.000000 -18.796041 30.737420 0.706843 12.749252 24.595702 1.355505 -117.092336 56.283926 -67.608127 0.000000 0.000000 0.000000 
-0.092884 0.278084 0.342324 -8.106366 11.032687 -29.632886 25.945727 3.691625 -73.954691 -4.721027 -9.731408 157.265205 6.734902 -6.920440 -43.992353 0.000000 0.000000 0.000000 -14.211386 -9.172567 -73.132087 10.941199 -25.865668 137.729867 -7.237838 -37.630157 -43.418540 0.000000 0.000000 0.000000 -15.819514 2.193818 87.871227 13.174234 -3.095143 -25.071432 11.469629 20.619908 30.694864 -2.981128 7.458959 -13.418739 0.000000 0.000000 0.000000 -15.594650 -22.203572 5.381624 6.944505 -30.605104 -2.476414 119.446311 -59.475239 -95.955050 0.000000 0.000000 0.000000 -18.138116 30.491749 0.896679 12.788691 23.153792 1.065166 -119.887996 55.834964 -69.792983 0.000000 0.000000 0.000000 
-0.092961 0.275127 0.343469 -8.077580 10.857399 -29.059324 25.810260 3.756310 -75.837872 -4.548862 -10.379036 158.104229 6.673767 -8.855155 -43.765587 0.000000 0.000000 0.000000 -13.663179 -8.870262 -74.691147 11.420963 -27.768025 138.161754 -6.995550 -38.177309 -44.383076 0.000000 0.000000 0.000000 -16.239191 2.700792 88.055603 13.236945 -3.052112 -25.386221 11.618786 20.539545 31.703383 -2.716894 7.246723 -12.904404 0.000000 0.000000 0.000000 -15.355097 -22.330632 5.541864 8.464732 -30.519841 -2.783203 119.154357 -57.514814 -93.405830 0.000000 0.000000 0.000000 -18.417955 30.316080 0.686946 12.460505 22.459677 0.919992 -120.403301 54.065007 -67.836764 0.000000 0.000000 0.000000 
-0.092869 0.272063 0.345435 -8.161434 11.121087 -29.025945 25.594971 3.480100 -77.424900 -4.507803 -10.317697 158.913119 6.275566 -10.432968 -42.378243 0.000000 0.000000 0.000000 -13.605587 -9.193166 -75.871904 11.720892 -29.075807 138.679346 -6.833342 -38.547112 -44.850184 0.000000 0.000000 0.000000 -16.214475 2.581246 88.828720 12.923364 -2.893587 -25.612927 11.633544 19.730021 32.225118 -2.095621 6.475345 -11.701526 0.000000 0.000000 0.000000 -14.346570 -23.083133 6.145500 9.880534 -30.750882 -3.091908 116.355494 -55.422017 -87.890629 0.000000 0.000000 0.000000 -19.578316 29.806235 0.149903 12.242838 22.310405 0.871863 -119.106308 52.305797 -64.375041 0.000000 0.000000 0.000000 
-0.092805 0.268195 0.348703 -7.726943 10.651483 -29.236808 25.719232 3.938633 -78.662691 -4.329438 -11.472612 159.096510 5.993696 -13.511862 -41.809576 0.000000 0.000000 0.000000 -13.417974 -8.895166 -77.149606 12.210742 -31.051503 139.360020 -6.750230 -39.923528 -44.358371 0.000000 0.000000 0.000000 -16.359044 3.103140 89.261517 13.679505 -3.133628 -25.622876 10.552446 19.677815 32.080349 -2.241921 6.402258 -10.024334 0.000000 0.000000 0.000000 -14.044006 -23.843141 6.478731 12.005602 -30.506760 -3.484410 112.734704 -54.286753 -82.607064 0.000000 0.000000 0.000000 -18.657143 30.020941 0.442935 10.490380 21.519175 0.606756 -117.065559 51.118232 -61.126193 0.000000 0.000000 0.000000 
